<svg xmlns="http://www.w3.org/2000/svg" viewBox="0 0 512 512">
  <defs>
    <linearGradient id="g" x1="0" y1="0" x2="1" y2="1">
      <stop offset="0%" stop-color="#7c5cff" />
      <stop offset="100%" stop-color="#3ecbff" />
    </linearGradient>
  </defs>
  <rect width="512" height="512" rx="112" fill="#0a0d14" />
  <g transform="translate(96 96)">
    <rect x="0" y="0" width="320" height="320" rx="64" fill="url(#g)" opacity="0.18"/>
    <path d="M48 96h224a16 16 0 0 1 16 16v176a16 16 0 0 1-16 16H48a16 16 0 0 1-16-16V112a16 16 0 0 1 16-16Z" fill="url(#g)"/>
    <path d="M64 144h192M64 184h192M64 224h128" stroke="#0a0d14" stroke-width="14" stroke-linecap="round"/>
    <circle cx="232" cy="80" r="32" fill="#fff" opacity="0.9"/>
  </g>
</svg>
